<svg width="36" height="36" viewBox="0 0 36 36" fill="none" xmlns="http://www.w3.org/2000/svg">
<path fill-rule="evenodd" clip-rule="evenodd" d="M18.4586 25.0605C17.9921 24.804 17.4281 24.8085 16.9736 25.08L11.3516 28.38L13.5536 19.815C14.8661 20.565 16.3826 21 17.9996 21C19.6166 21 21.1331 20.565 22.4471 19.815L24.6806 28.503L18.4586 25.0605ZM17.9996 6C21.3086 6 23.9996 8.691 23.9996 12C23.9996 15.309 21.3086 18 17.9996 18C14.6906 18 11.9996 15.309 11.9996 12C11.9996 8.691 14.6906 6 17.9996 6V6ZM28.4531 31.1265L24.9896 17.658C26.2436 16.11 26.9996 14.1435 26.9996 12C26.9996 7.0365 22.9631 3 17.9996 3C13.0376 3 8.99957 7.0365 8.99957 12C8.99957 14.1435 9.75557 16.11 11.0096 17.658L7.54757 31.1265C7.39607 31.7145 7.61357 32.334 8.09807 32.6985C8.58107 33.063 9.23807 33.096 9.75857 32.793L17.7536 28.0995L26.2736 32.8125C26.5001 32.9385 26.7506 33 26.9996 33C27.3251 33 27.6491 32.895 27.9191 32.6865C28.3916 32.3205 28.6031 31.707 28.4531 31.1265V31.1265Z" fill="#27AE60"/>
<mask id="mask0" mask-type="alpha" maskUnits="userSpaceOnUse" x="7" y="3" width="22" height="30">
<path fill-rule="evenodd" clip-rule="evenodd" d="M18.4586 25.0605C17.9921 24.804 17.4281 24.8085 16.9736 25.08L11.3516 28.38L13.5536 19.815C14.8661 20.565 16.3826 21 17.9996 21C19.6166 21 21.1331 20.565 22.4471 19.815L24.6806 28.503L18.4586 25.0605ZM17.9996 6C21.3086 6 23.9996 8.691 23.9996 12C23.9996 15.309 21.3086 18 17.9996 18C14.6906 18 11.9996 15.309 11.9996 12C11.9996 8.691 14.6906 6 17.9996 6V6ZM28.4531 31.1265L24.9896 17.658C26.2436 16.11 26.9996 14.1435 26.9996 12C26.9996 7.0365 22.9631 3 17.9996 3C13.0376 3 8.99957 7.0365 8.99957 12C8.99957 14.1435 9.75557 16.11 11.0096 17.658L7.54757 31.1265C7.39607 31.7145 7.61357 32.334 8.09807 32.6985C8.58107 33.063 9.23807 33.096 9.75857 32.793L17.7536 28.0995L26.2736 32.8125C26.5001 32.9385 26.7506 33 26.9996 33C27.3251 33 27.6491 32.895 27.9191 32.6865C28.3916 32.3205 28.6031 31.707 28.4531 31.1265V31.1265Z" fill="white"/>
</mask>
<g mask="url(#mask0)">
</g>
</svg>
