<svg width="35" height="35" viewBox="0 0 35 35" fill="none" xmlns="http://www.w3.org/2000/svg">
<path fill-rule="evenodd" clip-rule="evenodd" d="M27.7083 26.25C27.7083 27.055 27.055 27.7083 26.25 27.7083C25.445 27.7083 24.7917 27.055 24.7917 26.25C24.7917 25.445 25.445 24.7917 26.25 24.7917C27.055 24.7917 27.7083 25.445 27.7083 26.25V26.25ZM17.5 21.875H5.83332L5.85666 7.29167H21.875L21.8517 21.875H17.5ZM10.2083 26.25C10.2083 27.055 9.55499 27.7083 8.74999 27.7083C7.94499 27.7083 7.29166 27.055 7.29166 26.25C7.29166 25.445 7.94499 24.7917 8.74999 24.7917C9.55499 24.7917 10.2083 25.445 10.2083 26.25V26.25ZM29.1667 18.2V21.875H24.7917V14.7015L29.1667 18.2ZM31.5365 16.361L24.7917 10.9652V7.29167C24.7917 5.68312 23.606 4.375 22.1477 4.375H5.55916C4.10228 4.375 2.91666 5.68312 2.91666 7.29167V21.875C2.91666 23.1481 3.66478 24.2215 4.69728 24.6196C4.49311 25.1242 4.37499 25.6725 4.37499 26.25C4.37499 28.6621 6.33791 30.625 8.74999 30.625C11.1621 30.625 13.125 28.6621 13.125 26.25C13.125 25.7352 13.02 25.2496 12.8552 24.7917H17.5H22.1448C21.98 25.2496 21.875 25.7352 21.875 26.25C21.875 28.6621 23.8379 30.625 26.25 30.625C28.6621 30.625 30.625 28.6621 30.625 26.25C30.625 25.7352 30.52 25.2496 30.3552 24.7917H30.625C31.4315 24.7917 32.0833 24.1398 32.0833 23.3333V17.5C32.0833 17.0567 31.8821 16.6381 31.5365 16.361V16.361Z" fill="#F2C94C"/>
<mask id="mask0" mask-type="alpha" maskUnits="userSpaceOnUse" x="2" y="4" width="31" height="27">
<path fill-rule="evenodd" clip-rule="evenodd" d="M27.7083 26.25C27.7083 27.055 27.055 27.7083 26.25 27.7083C25.445 27.7083 24.7917 27.055 24.7917 26.25C24.7917 25.445 25.445 24.7917 26.25 24.7917C27.055 24.7917 27.7083 25.445 27.7083 26.25V26.25ZM17.5 21.875H5.83332L5.85666 7.29167H21.875L21.8517 21.875H17.5ZM10.2083 26.25C10.2083 27.055 9.55499 27.7083 8.74999 27.7083C7.94499 27.7083 7.29166 27.055 7.29166 26.25C7.29166 25.445 7.94499 24.7917 8.74999 24.7917C9.55499 24.7917 10.2083 25.445 10.2083 26.25V26.25ZM29.1667 18.2V21.875H24.7917V14.7015L29.1667 18.2ZM31.5365 16.361L24.7917 10.9652V7.29167C24.7917 5.68312 23.606 4.375 22.1477 4.375H5.55916C4.10228 4.375 2.91666 5.68312 2.91666 7.29167V21.875C2.91666 23.1481 3.66478 24.2215 4.69728 24.6196C4.49311 25.1242 4.37499 25.6725 4.37499 26.25C4.37499 28.6621 6.33791 30.625 8.74999 30.625C11.1621 30.625 13.125 28.6621 13.125 26.25C13.125 25.7352 13.02 25.2496 12.8552 24.7917H17.5H22.1448C21.98 25.2496 21.875 25.7352 21.875 26.25C21.875 28.6621 23.8379 30.625 26.25 30.625C28.6621 30.625 30.625 28.6621 30.625 26.25C30.625 25.7352 30.52 25.2496 30.3552 24.7917H30.625C31.4315 24.7917 32.0833 24.1398 32.0833 23.3333V17.5C32.0833 17.0567 31.8821 16.6381 31.5365 16.361V16.361Z" fill="white"/>
</mask>
<g mask="url(#mask0)">
</g>
</svg>
