<svg width="20" height="20" viewBox="0 0 20 20" fill="none" xmlns="http://www.w3.org/2000/svg">
<path fill-rule="evenodd" clip-rule="evenodd" d="M15.8334 15C15.8334 15.46 15.46 15.8333 15 15.8333C14.54 15.8333 14.1667 15.46 14.1667 15C14.1667 14.54 14.54 14.1667 15 14.1667C15.46 14.1667 15.8334 14.54 15.8334 15ZM10 12.5H3.33335L3.34669 4.16667H12.5L12.4867 12.5H10ZM5.83335 15C5.83335 15.46 5.46002 15.8333 5.00002 15.8333C4.54002 15.8333 4.16669 15.46 4.16669 15C4.16669 14.54 4.54002 14.1667 5.00002 14.1667C5.46002 14.1667 5.83335 14.54 5.83335 15ZM16.6667 10.4V12.5H14.1667V8.40084L16.6667 10.4ZM18.0209 9.34917L14.1667 6.26583V4.16667C14.1667 3.2475 13.4892 2.5 12.6559 2.5H3.17669C2.34419 2.5 1.66669 3.2475 1.66669 4.16667V12.5C1.66669 13.2275 2.09419 13.8408 2.68419 14.0683C2.56752 14.3567 2.50002 14.67 2.50002 15C2.50002 16.3783 3.62169 17.5 5.00002 17.5C6.37835 17.5 7.50002 16.3783 7.50002 15C7.50002 14.7058 7.44002 14.4283 7.34585 14.1667H10H12.6542C12.56 14.4283 12.5 14.7058 12.5 15C12.5 16.3783 13.6217 17.5 15 17.5C16.3784 17.5 17.5 16.3783 17.5 15C17.5 14.7058 17.44 14.4283 17.3459 14.1667H17.5C17.9609 14.1667 18.3334 13.7942 18.3334 13.3333V10C18.3334 9.74667 18.2184 9.5075 18.0209 9.34917Z" fill="#FF3D71"/>
<mask id="mask0" mask-type="alpha" maskUnits="userSpaceOnUse" x="1" y="2" width="18" height="16">
<path fill-rule="evenodd" clip-rule="evenodd" d="M15.8334 15C15.8334 15.46 15.46 15.8333 15 15.8333C14.54 15.8333 14.1667 15.46 14.1667 15C14.1667 14.54 14.54 14.1667 15 14.1667C15.46 14.1667 15.8334 14.54 15.8334 15ZM10 12.5H3.33335L3.34669 4.16667H12.5L12.4867 12.5H10ZM5.83335 15C5.83335 15.46 5.46002 15.8333 5.00002 15.8333C4.54002 15.8333 4.16669 15.46 4.16669 15C4.16669 14.54 4.54002 14.1667 5.00002 14.1667C5.46002 14.1667 5.83335 14.54 5.83335 15ZM16.6667 10.4V12.5H14.1667V8.40084L16.6667 10.4ZM18.0209 9.34917L14.1667 6.26583V4.16667C14.1667 3.2475 13.4892 2.5 12.6559 2.5H3.17669C2.34419 2.5 1.66669 3.2475 1.66669 4.16667V12.5C1.66669 13.2275 2.09419 13.8408 2.68419 14.0683C2.56752 14.3567 2.50002 14.67 2.50002 15C2.50002 16.3783 3.62169 17.5 5.00002 17.5C6.37835 17.5 7.50002 16.3783 7.50002 15C7.50002 14.7058 7.44002 14.4283 7.34585 14.1667H10H12.6542C12.56 14.4283 12.5 14.7058 12.5 15C12.5 16.3783 13.6217 17.5 15 17.5C16.3784 17.5 17.5 16.3783 17.5 15C17.5 14.7058 17.44 14.4283 17.3459 14.1667H17.5C17.9609 14.1667 18.3334 13.7942 18.3334 13.3333V10C18.3334 9.74667 18.2184 9.5075 18.0209 9.34917Z" fill="white"/>
</mask>
<g mask="url(#mask0)">
</g>
</svg>
