<svg width="20" height="20" viewBox="0 0 20 20" fill="none" xmlns="http://www.w3.org/2000/svg">
<path d="M11.1667 7.66667C11.625 7.66667 12 7.29167 12 6.83333V5.16667H13.6667C14.125 5.16667 14.5 4.79167 14.5 4.33333C14.5 3.875 14.125 3.5 13.6667 3.5H12V1.83333C12 1.375 11.625 1 11.1667 1C10.7083 1 10.3333 1.375 10.3333 1.83333V3.5H8.66667C8.20833 3.5 7.83333 3.875 7.83333 4.33333C7.83333 4.79167 8.20833 5.16667 8.66667 5.16667H10.3333V6.83333C10.3333 7.29167 10.7083 7.66667 11.1667 7.66667ZM7 15.1667C6.08333 15.1667 5.34167 15.9167 5.34167 16.8333C5.34167 17.75 6.08333 18.5 7 18.5C7.91667 18.5 8.66667 17.75 8.66667 16.8333C8.66667 15.9167 7.91667 15.1667 7 15.1667ZM15.3333 15.1667C14.4167 15.1667 13.675 15.9167 13.675 16.8333C13.675 17.75 14.4167 18.5 15.3333 18.5C16.25 18.5 17 17.75 17 16.8333C17 15.9167 16.25 15.1667 15.3333 15.1667ZM7.91667 11H14.125C14.75 11 15.3 10.6583 15.5833 10.1417L18.4 5.03333C18.625 4.63333 18.475 4.125 18.075 3.9C17.8826 3.79467 17.6563 3.76973 17.4455 3.83062C17.2348 3.8915 17.0566 4.03328 16.95 4.225L14.125 9.33333H8.275L4.95 2.30833C4.88303 2.16609 4.77691 2.04587 4.64409 1.96174C4.51126 1.87762 4.35722 1.83308 4.2 1.83333H2.83333C2.375 1.83333 2 2.20833 2 2.66667C2 3.125 2.375 3.5 2.83333 3.5H3.66667L6.66667 9.825L5.54167 11.8583C4.93333 12.975 5.73333 14.3333 7 14.3333H16.1667C16.625 14.3333 17 13.9583 17 13.5C17 13.0417 16.625 12.6667 16.1667 12.6667H7L7.91667 11Z" fill="white"/>
</svg>
