<svg width="26" height="25" viewBox="0 0 26 25" fill="none" xmlns="http://www.w3.org/2000/svg">
<path d="M22.6403 21.875L22.9183 22.0703C22.733 22.2331 22.6403 22.4284 22.6403 22.6562C22.6403 22.8678 22.7203 23.0509 22.8804 23.2056C23.0404 23.3602 23.2299 23.4375 23.4489 23.4375H24.7881L25.2177 23.7549C24.5607 24.585 23.7016 25 22.6403 25H3.23433C2.34152 25 1.57926 24.6948 0.947557 24.0845C0.315852 23.4741 0 22.7376 0 21.875V3.125C0 2.26237 0.315852 1.52588 0.947557 0.915527C1.57926 0.305176 2.34152 0 3.23433 0H22.6403C23.7016 0 24.5607 0.415039 25.2177 1.24512L24.7881 1.5625H23.4489C23.2299 1.5625 23.0404 1.63981 22.8804 1.79443C22.7203 1.94906 22.6403 2.13216 22.6403 2.34375C22.6403 2.57161 22.733 2.76693 22.9183 2.92969L22.6403 3.125L25.8746 5.46875L22.6403 7.8125L25.8746 10.1562L22.6403 12.5L25.8746 14.8438L22.6403 17.1875L25.8746 19.5312L22.6403 21.875ZM13.7459 23.4375H15.3631C15.5821 23.4375 15.7716 23.3602 15.9316 23.2056C16.0916 23.0509 16.1716 22.8678 16.1716 22.6562C16.1716 22.4447 16.0916 22.2616 15.9316 22.1069C15.7716 21.9523 15.5821 21.875 15.3631 21.875H13.7459C13.5269 21.875 13.3374 21.9523 13.1774 22.1069C13.0173 22.2616 12.9373 22.4447 12.9373 22.6562C12.9373 22.8678 13.0173 23.0509 13.1774 23.2056C13.3374 23.3602 13.5269 23.4375 13.7459 23.4375ZM17.7888 18.75C18.6816 18.75 19.4439 18.4448 20.0756 17.8345C20.7073 17.2241 21.0231 16.4876 21.0231 15.625C21.0231 14.7624 20.7073 14.0259 20.0756 13.4155C19.4439 12.8052 18.6816 12.5 17.7888 12.5C16.896 12.5 16.1337 12.8052 15.502 13.4155C14.8703 14.0259 14.5545 14.7624 14.5545 15.625C14.5545 16.4876 14.8703 17.2241 15.502 17.8345C16.1337 18.4448 16.896 18.75 17.7888 18.75ZM8.89441 23.4375H10.5116C10.7306 23.4375 10.9201 23.3602 11.0801 23.2056C11.2401 23.0509 11.3202 22.8678 11.3202 22.6562C11.3202 22.4447 11.2401 22.2616 11.0801 22.1069C10.9201 21.9523 10.7306 21.875 10.5116 21.875H8.89441C8.67541 21.875 8.4859 21.9523 8.32587 22.1069C8.16584 22.2616 8.08582 22.4447 8.08582 22.6562C8.08582 22.8678 8.16584 23.0509 8.32587 23.2056C8.4859 23.3602 8.67541 23.4375 8.89441 23.4375ZM4.04291 23.4375H5.66008C5.87907 23.4375 6.06858 23.3602 6.22861 23.2056C6.38864 23.0509 6.46866 22.8678 6.46866 22.6562C6.46866 22.4447 6.38864 22.2616 6.22861 22.1069C6.06858 21.9523 5.87907 21.875 5.66008 21.875H4.04291C3.82392 21.875 3.63441 21.9523 3.47438 22.1069C3.31435 22.2616 3.23433 22.4447 3.23433 22.6562C3.23433 22.8678 3.31435 23.0509 3.47438 23.2056C3.63441 23.3602 3.82392 23.4375 4.04291 23.4375ZM1.61716 20.3125C1.61716 20.5241 1.69718 20.7072 1.85721 20.8618C2.01724 21.0164 2.20676 21.0938 2.42575 21.0938C2.64474 21.0938 2.83425 21.0164 2.99428 20.8618C3.15431 20.7072 3.23433 20.5241 3.23433 20.3125V18.75C3.23433 18.5384 3.15431 18.3553 2.99428 18.2007C2.83425 18.0461 2.64474 17.9688 2.42575 17.9688C2.20676 17.9688 2.01724 18.0461 1.85721 18.2007C1.69718 18.3553 1.61716 18.5384 1.61716 18.75V20.3125ZM1.61716 15.625C1.61716 15.8366 1.69718 16.0197 1.85721 16.1743C2.01724 16.3289 2.20676 16.4062 2.42575 16.4062C2.64474 16.4062 2.83425 16.3289 2.99428 16.1743C3.15431 16.0197 3.23433 15.8366 3.23433 15.625V14.0625C3.23433 13.8509 3.15431 13.6678 2.99428 13.5132C2.83425 13.3586 2.64474 13.2812 2.42575 13.2812C2.20676 13.2812 2.01724 13.3586 1.85721 13.5132C1.69718 13.6678 1.61716 13.8509 1.61716 14.0625V15.625ZM1.61716 10.9375C1.61716 11.1491 1.69718 11.3322 1.85721 11.4868C2.01724 11.6414 2.20676 11.7188 2.42575 11.7188C2.64474 11.7188 2.83425 11.6414 2.99428 11.4868C3.15431 11.3322 3.23433 11.1491 3.23433 10.9375V9.375C3.23433 9.16341 3.15431 8.98031 2.99428 8.82568C2.83425 8.67106 2.64474 8.59375 2.42575 8.59375C2.20676 8.59375 2.01724 8.67106 1.85721 8.82568C1.69718 8.98031 1.61716 9.16341 1.61716 9.375V10.9375ZM2.42575 3.90625C2.20676 3.90625 2.01724 3.98356 1.85721 4.13818C1.69718 4.29281 1.61716 4.47591 1.61716 4.6875V6.25C1.61716 6.46159 1.69718 6.64469 1.85721 6.79932C2.01724 6.95394 2.20676 7.03125 2.42575 7.03125C2.64474 7.03125 2.83425 6.95394 2.99428 6.79932C3.15431 6.64469 3.23433 6.46159 3.23433 6.25V4.6875C3.23433 4.47591 3.15431 4.29281 2.99428 4.13818C2.83425 3.98356 2.64474 3.90625 2.42575 3.90625ZM5.66008 1.5625H4.04291C3.82392 1.5625 3.63441 1.63981 3.47438 1.79443C3.31435 1.94906 3.23433 2.13216 3.23433 2.34375C3.23433 2.55534 3.31435 2.73844 3.47438 2.89307C3.63441 3.04769 3.82392 3.125 4.04291 3.125H5.66008C5.87907 3.125 6.06858 3.04769 6.22861 2.89307C6.38864 2.73844 6.46866 2.55534 6.46866 2.34375C6.46866 2.13216 6.38864 1.94906 6.22861 1.79443C6.06858 1.63981 5.87907 1.5625 5.66008 1.5625ZM10.5116 1.5625H8.89441C8.67541 1.5625 8.4859 1.63981 8.32587 1.79443C8.16584 1.94906 8.08582 2.13216 8.08582 2.34375C8.08582 2.55534 8.16584 2.73844 8.32587 2.89307C8.4859 3.04769 8.67541 3.125 8.89441 3.125H10.5116C10.7306 3.125 10.9201 3.04769 11.0801 2.89307C11.2401 2.73844 11.3202 2.55534 11.3202 2.34375C11.3202 2.13216 11.2401 1.94906 11.0801 1.79443C10.9201 1.63981 10.7306 1.5625 10.5116 1.5625ZM9.70299 6.25C8.81018 6.25 8.04792 6.55518 7.41622 7.16553C6.78451 7.77588 6.46866 8.51237 6.46866 9.375C6.46866 10.2376 6.78451 10.9741 7.41622 11.5845C8.04792 12.1948 8.81018 12.5 9.70299 12.5C10.5958 12.5 11.3581 12.1948 11.9898 11.5845C12.6215 10.9741 12.9373 10.2376 12.9373 9.375C12.9373 8.51237 12.6215 7.77588 11.9898 7.16553C11.3581 6.55518 10.5958 6.25 9.70299 6.25ZM15.3631 1.5625H13.7459C13.5269 1.5625 13.3374 1.63981 13.1774 1.79443C13.0173 1.94906 12.9373 2.13216 12.9373 2.34375C12.9373 2.55534 13.0173 2.73844 13.1774 2.89307C13.3374 3.04769 13.5269 3.125 13.7459 3.125H15.3631C15.5821 3.125 15.7716 3.04769 15.9316 2.89307C16.0916 2.73844 16.1716 2.55534 16.1716 2.34375C16.1716 2.13216 16.0916 1.94906 15.9316 1.79443C15.7716 1.63981 15.5821 1.5625 15.3631 1.5625ZM17.4224 6.35986C17.2455 6.25407 17.056 6.22559 16.8539 6.27441C16.6517 6.32324 16.4917 6.44531 16.3738 6.64062L9.80406 17.6025C9.70299 17.7816 9.67772 17.9769 9.72826 18.1885C9.77879 18.4001 9.89671 18.5588 10.082 18.6646C10.2673 18.7703 10.461 18.7948 10.6632 18.7378C10.8653 18.6808 11.0169 18.5628 11.118 18.3838L17.713 7.39746C17.8141 7.21842 17.8351 7.02718 17.7762 6.82373C17.7172 6.62028 17.5993 6.46566 17.4224 6.35986ZM20.2146 1.5625H18.5974C18.3784 1.5625 18.1889 1.63981 18.0289 1.79443C17.8688 1.94906 17.7888 2.13216 17.7888 2.34375C17.7888 2.55534 17.8688 2.73844 18.0289 2.89307C18.1889 3.04769 18.3784 3.125 18.5974 3.125H20.2146C20.4335 3.125 20.6231 3.04769 20.7831 2.89307C20.9431 2.73844 21.0231 2.55534 21.0231 2.34375C21.0231 2.13216 20.9431 1.94906 20.7831 1.79443C20.6231 1.63981 20.4335 1.5625 20.2146 1.5625ZM20.2146 21.875H18.5974C18.3784 21.875 18.1889 21.9523 18.0289 22.1069C17.8688 22.2616 17.7888 22.4447 17.7888 22.6562C17.7888 22.8678 17.8688 23.0509 18.0289 23.2056C18.1889 23.3602 18.3784 23.4375 18.5974 23.4375H20.2146C20.4335 23.4375 20.6231 23.3602 20.7831 23.2056C20.9431 23.0509 21.0231 22.8678 21.0231 22.6562C21.0231 22.4447 20.9431 22.2616 20.7831 22.1069C20.6231 21.9523 20.4335 21.875 20.2146 21.875ZM9.71562 10.9375C9.26922 10.9375 8.88598 10.7829 8.56592 10.4736C8.24585 10.1644 8.08582 9.79411 8.08582 9.36279C8.08582 8.93148 8.24585 8.56527 8.56592 8.26416C8.88598 7.96305 9.26922 7.8125 9.71562 7.8125C10.162 7.8125 10.541 7.96305 10.8527 8.26416C11.1643 8.56527 11.3202 8.93148 11.3202 9.36279C11.3202 9.79411 11.1643 10.1644 10.8527 10.4736C10.541 10.7829 10.162 10.9375 9.71562 10.9375ZM17.8014 14.0625C18.2478 14.0625 18.6269 14.2131 18.9385 14.5142C19.2502 14.8153 19.406 15.1815 19.406 15.6128C19.406 16.0441 19.2502 16.4144 18.9385 16.7236C18.6269 17.0329 18.2478 17.1875 17.8014 17.1875C17.355 17.1875 16.9718 17.0329 16.6517 16.7236C16.3317 16.4144 16.1716 16.0441 16.1716 15.6128C16.1716 15.1815 16.3317 14.8153 16.6517 14.5142C16.9718 14.2131 17.355 14.0625 17.8014 14.0625Z" fill="#4F4F4F"/>
</svg>
