<svg width="26" height="26" viewBox="0 0 26 26" fill="none" xmlns="http://www.w3.org/2000/svg">
<path fill-rule="evenodd" clip-rule="evenodd" d="M14.0833 20.5833H18.9583V16.25H14.0833V20.5833ZM7.04167 20.5833H11.9167V16.25H7.04167V20.5833ZM5.41667 9.96667C5.41667 9.87675 5.43075 9.80417 5.44483 9.75H8.82158H11.9167V14.0833H5.44483C5.43075 14.0292 5.41667 13.9566 5.41667 13.8667V9.96667ZM7.58333 6.5C7.58333 5.902 8.13908 5.41667 8.82158 5.41667C10.1833 5.41667 11.0175 6.5975 11.4768 7.58333H8.82158C8.13908 7.58333 7.58333 7.098 7.58333 6.5V6.5ZM17.1784 5.41667C17.8609 5.41667 18.4167 5.902 18.4167 6.5C18.4167 7.098 17.8609 7.58333 17.1784 7.58333H14.5167C14.9717 6.5975 15.8037 5.41667 17.1784 5.41667V5.41667ZM20.5833 9.96667V13.8667C20.5833 13.9566 20.5693 14.0292 20.5552 14.0833H14.0833V9.75H17.1784H20.5552C20.5693 9.80417 20.5833 9.87675 20.5833 9.96667V9.96667ZM20.8 7.58333H20.3743C20.5021 7.24317 20.5833 6.88242 20.5833 6.5C20.5833 4.70817 19.0558 3.25 17.1784 3.25C15.0963 3.25 13.7898 4.54892 13 5.84675C12.2103 4.54892 10.9038 3.25 8.82158 3.25C6.94417 3.25 5.41667 4.70817 5.41667 6.5C5.41667 6.88242 5.499 7.24317 5.62575 7.58333H5.2C4.10692 7.58333 3.25 8.63092 3.25 9.96667V13.8667C3.25 15.0659 3.94333 16.0258 4.875 16.211V20.9441C4.875 21.9397 5.75575 22.75 6.838 22.75H19.1609C20.2443 22.75 21.125 21.9397 21.125 20.9441V16.211C22.0567 16.0258 22.75 15.0659 22.75 13.8667V9.96667C22.75 8.63092 21.8931 7.58333 20.8 7.58333V7.58333Z" fill="#828282"/>
<mask id="mask0" mask-type="alpha" maskUnits="userSpaceOnUse" x="3" y="3" width="20" height="20">
<path fill-rule="evenodd" clip-rule="evenodd" d="M14.0833 20.5833H18.9583V16.25H14.0833V20.5833ZM7.04167 20.5833H11.9167V16.25H7.04167V20.5833ZM5.41667 9.96667C5.41667 9.87675 5.43075 9.80417 5.44483 9.75H8.82158H11.9167V14.0833H5.44483C5.43075 14.0292 5.41667 13.9566 5.41667 13.8667V9.96667ZM7.58333 6.5C7.58333 5.902 8.13908 5.41667 8.82158 5.41667C10.1833 5.41667 11.0175 6.5975 11.4768 7.58333H8.82158C8.13908 7.58333 7.58333 7.098 7.58333 6.5V6.5ZM17.1784 5.41667C17.8609 5.41667 18.4167 5.902 18.4167 6.5C18.4167 7.098 17.8609 7.58333 17.1784 7.58333H14.5167C14.9717 6.5975 15.8037 5.41667 17.1784 5.41667V5.41667ZM20.5833 9.96667V13.8667C20.5833 13.9566 20.5693 14.0292 20.5552 14.0833H14.0833V9.75H17.1784H20.5552C20.5693 9.80417 20.5833 9.87675 20.5833 9.96667V9.96667ZM20.8 7.58333H20.3743C20.5021 7.24317 20.5833 6.88242 20.5833 6.5C20.5833 4.70817 19.0558 3.25 17.1784 3.25C15.0963 3.25 13.7898 4.54892 13 5.84675C12.2103 4.54892 10.9038 3.25 8.82158 3.25C6.94417 3.25 5.41667 4.70817 5.41667 6.5C5.41667 6.88242 5.499 7.24317 5.62575 7.58333H5.2C4.10692 7.58333 3.25 8.63092 3.25 9.96667V13.8667C3.25 15.0659 3.94333 16.0258 4.875 16.211V20.9441C4.875 21.9397 5.75575 22.75 6.838 22.75H19.1609C20.2443 22.75 21.125 21.9397 21.125 20.9441V16.211C22.0567 16.0258 22.75 15.0659 22.75 13.8667V9.96667C22.75 8.63092 21.8931 7.58333 20.8 7.58333V7.58333Z" fill="white"/>
</mask>
<g mask="url(#mask0)">
</g>
</svg>
