<svg width="26" height="26" viewBox="0 0 26 26" fill="none" xmlns="http://www.w3.org/2000/svg">
<path fill-rule="evenodd" clip-rule="evenodd" d="M13 22.75V22.75C12.7118 22.75 12.4367 22.6362 12.233 22.4315L3.81874 14.0031C1.61307 11.7931 1.61307 8.19756 3.81874 5.98756C4.88366 4.92156 6.30607 4.33331 7.82166 4.33331C9.33724 4.33331 10.7597 4.92156 11.8246 5.98756L13 7.16515L14.1743 5.98865C15.2403 4.92156 16.6627 4.33331 18.1783 4.33331C19.6939 4.33331 21.1163 4.92156 22.1812 5.98756C24.3869 8.19756 24.3869 11.7931 22.1823 14.0031L13.767 22.4326C13.5633 22.6362 13.2882 22.75 13 22.75" fill="#4F4F4F"/>
<mask id="mask0" mask-type="alpha" maskUnits="userSpaceOnUse" x="2" y="4" width="22" height="19">
<path fill-rule="evenodd" clip-rule="evenodd" d="M13 22.75V22.75C12.7118 22.75 12.4367 22.6362 12.233 22.4315L3.81874 14.0031C1.61307 11.7931 1.61307 8.19756 3.81874 5.98756C4.88366 4.92156 6.30607 4.33331 7.82166 4.33331C9.33724 4.33331 10.7597 4.92156 11.8246 5.98756L13 7.16515L14.1743 5.98865C15.2403 4.92156 16.6627 4.33331 18.1783 4.33331C19.6939 4.33331 21.1163 4.92156 22.1812 5.98756C24.3869 8.19756 24.3869 11.7931 22.1823 14.0031L13.767 22.4326C13.5633 22.6362 13.2882 22.75 13 22.75" fill="white"/>
</mask>
<g mask="url(#mask0)">
</g>
</svg>
