<svg width="26" height="26" viewBox="0 0 26 26" fill="none" xmlns="http://www.w3.org/2000/svg">
<path fill-rule="evenodd" clip-rule="evenodd" d="M17.3335 21.6534H20.5727L20.5835 12.5794L12.998 4.78811L5.42338 12.535L5.41688 21.6534H8.66688V14.0701C8.66688 13.471 9.15113 12.9868 9.75021 12.9868H16.2502C16.8482 12.9868 17.3335 13.471 17.3335 14.0701V21.6534ZM15.1669 21.6534H10.8335V15.1534H15.1669V21.6534ZM22.1262 11.0205L13.7748 2.47953C13.3664 2.06245 12.634 2.06245 12.2256 2.47953L3.87313 11.0216C3.47771 11.4279 3.25021 11.9955 3.25021 12.5794V21.6534C3.25021 22.8484 4.1678 23.8201 5.29555 23.8201H9.75021H16.2502H20.7038C21.8315 23.8201 22.7502 22.8484 22.7502 21.6534V12.5794C22.7502 11.9955 22.5227 11.4279 22.1262 11.0205V11.0205Z" fill="#FF3D71"/>
</svg>
