<svg width="35" height="35" viewBox="0 0 35 35" fill="none" xmlns="http://www.w3.org/2000/svg">
<path fill-rule="evenodd" clip-rule="evenodd" d="M4.375 8.02083C4.375 6.0073 6.0073 4.375 8.02083 4.375H12.3958C14.4094 4.375 16.0417 6.0073 16.0417 8.02083V12.3958C16.0417 14.4094 14.4094 16.0417 12.3958 16.0417H8.02083C6.0073 16.0417 4.375 14.4094 4.375 12.3958V8.02083ZM5.83333 8.02083V12.3958C5.83333 13.604 6.81271 14.5833 8.02083 14.5833H12.3958C13.604 14.5833 14.5833 13.604 14.5833 12.3958V8.02083C14.5833 6.81271 13.604 5.83333 12.3958 5.83333H8.02083C6.81271 5.83333 5.83333 6.81271 5.83333 8.02083ZM18.9583 8.02083C18.9583 6.0073 20.5906 4.375 22.6042 4.375H26.9792C28.9927 4.375 30.625 6.0073 30.625 8.02083V12.3958C30.625 14.4094 28.9927 16.0417 26.9792 16.0417H22.6042C20.5906 16.0417 18.9583 14.4094 18.9583 12.3958V8.02083ZM20.4167 8.02083V12.3958C20.4167 13.604 21.396 14.5833 22.6042 14.5833H26.9792C28.1873 14.5833 29.1667 13.604 29.1667 12.3958V8.02083C29.1667 6.81271 28.1873 5.83333 26.9792 5.83333H22.6042C21.396 5.83333 20.4167 6.81271 20.4167 8.02083ZM4.375 22.6042C4.375 20.5906 6.0073 18.9583 8.02083 18.9583H12.3958C14.4094 18.9583 16.0417 20.5906 16.0417 22.6042V26.9792C16.0417 28.9927 14.4094 30.625 12.3958 30.625H8.02083C6.0073 30.625 4.375 28.9927 4.375 26.9792V22.6042ZM5.83333 22.6042V26.9792C5.83333 28.1873 6.81271 29.1667 8.02083 29.1667H12.3958C13.604 29.1667 14.5833 28.1873 14.5833 26.9792V22.6042C14.5833 21.396 13.604 20.4167 12.3958 20.4167H8.02083C6.81271 20.4167 5.83333 21.396 5.83333 22.6042ZM18.9583 22.6042C18.9583 20.5906 20.5906 18.9583 22.6042 18.9583H26.9792C28.9927 18.9583 30.625 20.5906 30.625 22.6042V26.9792C30.625 28.9927 28.9927 30.625 26.9792 30.625H22.6042C20.5906 30.625 18.9583 28.9927 18.9583 26.9792V22.6042ZM20.4167 22.6042V26.9792C20.4167 28.1873 21.396 29.1667 22.6042 29.1667H26.9792C28.1873 29.1667 29.1667 28.1873 29.1667 26.9792V22.6042C29.1667 21.396 28.1873 20.4167 26.9792 20.4167H22.6042C21.396 20.4167 20.4167 21.396 20.4167 22.6042Z" fill="#2F80ED"/>
</svg>
