<svg width="26" height="26" viewBox="0 0 26 26" fill="none" xmlns="http://www.w3.org/2000/svg">
<path fill-rule="evenodd" clip-rule="evenodd" d="M3.25 7.58333C3.25 6.98533 3.73533 6.5 4.33333 6.5C4.93133 6.5 5.41667 6.98533 5.41667 7.58333C5.41667 8.18133 4.93133 8.66667 4.33333 8.66667C3.73533 8.66667 3.25 8.18133 3.25 7.58333ZM3.25 13C3.25 12.402 3.73533 11.9167 4.33333 11.9167C4.93133 11.9167 5.41667 12.402 5.41667 13C5.41667 13.598 4.93133 14.0833 4.33333 14.0833C3.73533 14.0833 3.25 13.598 3.25 13ZM4.33333 17.3333C3.73533 17.3333 3.25 17.8187 3.25 18.4167C3.25 19.0147 3.73533 19.5 4.33333 19.5C4.93133 19.5 5.41667 19.0147 5.41667 18.4167C5.41667 17.8187 4.93133 17.3333 4.33333 17.3333ZM8.59679 11.9167H21.7365C22.2945 11.9167 22.7505 12.3728 22.7505 12.9307V13.0693C22.7505 13.6273 22.2945 14.0833 21.7365 14.0833H8.59679C8.03887 14.0833 7.58387 13.6273 7.58387 13.0693V12.9307C7.58387 12.3728 8.03887 11.9167 8.59679 11.9167ZM21.7365 17.3333H8.59679C8.03887 17.3333 7.58387 17.7894 7.58387 18.3473V18.486C7.58387 19.0439 8.03887 19.5 8.59679 19.5H21.7365C22.2945 19.5 22.7505 19.0439 22.7505 18.486V18.3473C22.7505 17.7894 22.2945 17.3333 21.7365 17.3333ZM8.59679 6.5H21.7365C22.2945 6.5 22.7505 6.95608 22.7505 7.514V7.65267C22.7505 8.21058 22.2945 8.66667 21.7365 8.66667H8.59679C8.03887 8.66667 7.58387 8.21058 7.58387 7.65267V7.514C7.58387 6.95608 8.03887 6.5 8.59679 6.5Z" fill="#828282"/>
<mask id="mask0" mask-type="alpha" maskUnits="userSpaceOnUse" x="3" y="6" width="20" height="14">
<path fill-rule="evenodd" clip-rule="evenodd" d="M3.25 7.58333C3.25 6.98533 3.73533 6.5 4.33333 6.5C4.93133 6.5 5.41667 6.98533 5.41667 7.58333C5.41667 8.18133 4.93133 8.66667 4.33333 8.66667C3.73533 8.66667 3.25 8.18133 3.25 7.58333ZM3.25 13C3.25 12.402 3.73533 11.9167 4.33333 11.9167C4.93133 11.9167 5.41667 12.402 5.41667 13C5.41667 13.598 4.93133 14.0833 4.33333 14.0833C3.73533 14.0833 3.25 13.598 3.25 13ZM4.33333 17.3333C3.73533 17.3333 3.25 17.8187 3.25 18.4167C3.25 19.0147 3.73533 19.5 4.33333 19.5C4.93133 19.5 5.41667 19.0147 5.41667 18.4167C5.41667 17.8187 4.93133 17.3333 4.33333 17.3333ZM8.59679 11.9167H21.7365C22.2945 11.9167 22.7505 12.3728 22.7505 12.9307V13.0693C22.7505 13.6273 22.2945 14.0833 21.7365 14.0833H8.59679C8.03887 14.0833 7.58387 13.6273 7.58387 13.0693V12.9307C7.58387 12.3728 8.03887 11.9167 8.59679 11.9167ZM21.7365 17.3333H8.59679C8.03887 17.3333 7.58387 17.7894 7.58387 18.3473V18.486C7.58387 19.0439 8.03887 19.5 8.59679 19.5H21.7365C22.2945 19.5 22.7505 19.0439 22.7505 18.486V18.3473C22.7505 17.7894 22.2945 17.3333 21.7365 17.3333ZM8.59679 6.5H21.7365C22.2945 6.5 22.7505 6.95608 22.7505 7.514V7.65267C22.7505 8.21058 22.2945 8.66667 21.7365 8.66667H8.59679C8.03887 8.66667 7.58387 8.21058 7.58387 7.65267V7.514C7.58387 6.95608 8.03887 6.5 8.59679 6.5Z" fill="white"/>
</mask>
<g mask="url(#mask0)">
</g>
</svg>
