<svg width="26" height="26" viewBox="0 0 26 26" fill="none" xmlns="http://www.w3.org/2000/svg">
<path fill-rule="evenodd" clip-rule="evenodd" d="M17.3333 13C16.7353 13 16.25 12.5147 16.25 11.9167C16.25 11.3187 16.7353 10.8333 17.3333 10.8333C17.9313 10.8333 18.4167 11.3187 18.4167 11.9167C18.4167 12.5147 17.9313 13 17.3333 13M13 13C12.402 13 11.9167 12.5147 11.9167 11.9167C11.9167 11.3187 12.402 10.8333 13 10.8333C13.598 10.8333 14.0833 11.3187 14.0833 11.9167C14.0833 12.5147 13.598 13 13 13M8.66666 13C8.06866 13 7.58332 12.5147 7.58332 11.9167C7.58332 11.3187 8.06866 10.8333 8.66666 10.8333C9.26466 10.8333 9.74999 11.3187 9.74999 11.9167C9.74999 12.5147 9.26466 13 8.66666 13M20.5833 3.25H5.41666C3.62482 3.25 2.16666 4.70817 2.16666 6.5V22.75C2.16666 23.14 2.37682 23.5008 2.71591 23.6925C2.88166 23.7868 3.06582 23.8333 3.24999 23.8333C3.44282 23.8333 3.63566 23.7824 3.80791 23.6784L8.70891 20.7383C8.87791 20.6364 9.07074 20.5833 9.26682 20.5833H20.5833C22.3752 20.5833 23.8333 19.1252 23.8333 17.3333V6.5C23.8333 4.70817 22.3752 3.25 20.5833 3.25" fill="#4F4F4F"/>
<mask id="mask0" mask-type="alpha" maskUnits="userSpaceOnUse" x="2" y="3" width="22" height="21">
<path fill-rule="evenodd" clip-rule="evenodd" d="M17.3333 13C16.7353 13 16.25 12.5147 16.25 11.9167C16.25 11.3187 16.7353 10.8333 17.3333 10.8333C17.9313 10.8333 18.4167 11.3187 18.4167 11.9167C18.4167 12.5147 17.9313 13 17.3333 13M13 13C12.402 13 11.9167 12.5147 11.9167 11.9167C11.9167 11.3187 12.402 10.8333 13 10.8333C13.598 10.8333 14.0833 11.3187 14.0833 11.9167C14.0833 12.5147 13.598 13 13 13M8.66666 13C8.06866 13 7.58332 12.5147 7.58332 11.9167C7.58332 11.3187 8.06866 10.8333 8.66666 10.8333C9.26466 10.8333 9.74999 11.3187 9.74999 11.9167C9.74999 12.5147 9.26466 13 8.66666 13M20.5833 3.25H5.41666C3.62482 3.25 2.16666 4.70817 2.16666 6.5V22.75C2.16666 23.14 2.37682 23.5008 2.71591 23.6925C2.88166 23.7868 3.06582 23.8333 3.24999 23.8333C3.44282 23.8333 3.63566 23.7824 3.80791 23.6784L8.70891 20.7383C8.87791 20.6364 9.07074 20.5833 9.26682 20.5833H20.5833C22.3752 20.5833 23.8333 19.1252 23.8333 17.3333V6.5C23.8333 4.70817 22.3752 3.25 20.5833 3.25" fill="white"/>
</mask>
<g mask="url(#mask0)">
</g>
</svg>
