<svg width="20" height="19" viewBox="0 0 20 19" fill="none" xmlns="http://www.w3.org/2000/svg">
<path d="M10 8.99997C10.5523 8.99997 11 8.55225 11 7.99997C11 7.44768 10.5523 6.99997 10 6.99997C9.44772 6.99997 9 7.44768 9 7.99997C9 8.55225 9.44772 8.99997 10 8.99997Z" fill="#00D68F"/>
<path d="M14 8.99997C14.5523 8.99997 15 8.55225 15 7.99997C15 7.44768 14.5523 6.99997 14 6.99997C13.4477 6.99997 13 7.44768 13 7.99997C13 8.55225 13.4477 8.99997 14 8.99997Z" fill="#00D68F"/>
<path d="M6 8.99997C6.55228 8.99997 7 8.55225 7 7.99997C7 7.44768 6.55228 6.99997 6 6.99997C5.44772 6.99997 5 7.44768 5 7.99997C5 8.55225 5.44772 8.99997 6 8.99997Z" fill="#00D68F"/>
<path d="M17 0H3C2.20435 0 1.44129 0.316071 0.87868 0.87868C0.316071 1.44129 0 2.20435 0 3V18C0.000305357 18.1772 0.0476888 18.3511 0.1373 18.504C0.226912 18.6569 0.355534 18.7832 0.51 18.87C0.659456 18.9547 0.828212 18.9995 1 19C1.17948 18.9999 1.35564 18.9516 1.51 18.86L6 16.14C6.16597 16.0412 6.35699 15.9926 6.55 16H17C17.7956 16 18.5587 15.6839 19.1213 15.1213C19.6839 14.5587 20 13.7956 20 13V3C20 2.20435 19.6839 1.44129 19.1213 0.87868C18.5587 0.316071 17.7956 0 17 0ZM18 13C18 13.2652 17.8946 13.5196 17.7071 13.7071C17.5196 13.8946 17.2652 14 17 14H6.55C6.00382 13.9996 5.46789 14.1482 5 14.43L2 16.23V3C2 2.73478 2.10536 2.48043 2.29289 2.29289C2.48043 2.10536 2.73478 2 3 2H17C17.2652 2 17.5196 2.10536 17.7071 2.29289C17.8946 2.48043 18 2.73478 18 3V13Z" fill="#00D68F"/>
</svg>
