<svg width="32" height="30" viewBox="0 0 32 30" fill="none" xmlns="http://www.w3.org/2000/svg">
<path d="M15.5248 27.5C8.3795 27.5 2.58746 21.9037 2.58746 15C2.58746 8.09625 8.3795 2.5 15.5248 2.5C22.6701 2.5 28.4621 8.09625 28.4621 15C28.4621 21.9037 22.6701 27.5 15.5248 27.5ZM15.5248 25C18.2697 25 20.9023 23.9464 22.8432 22.0711C24.7842 20.1957 25.8746 17.6522 25.8746 15C25.8746 12.3478 24.7842 9.8043 22.8432 7.92893C20.9023 6.05357 18.2697 5 15.5248 5C12.7798 5 10.1473 6.05357 8.20633 7.92893C6.26535 9.8043 5.17493 12.3478 5.17493 15C5.17493 17.6522 6.26535 20.1957 8.20633 22.0711C10.1473 23.9464 12.7798 25 15.5248 25V25ZM10.9967 17.5H18.1122C18.2838 17.5 18.4483 17.4342 18.5696 17.3169C18.691 17.1997 18.7591 17.0408 18.7591 16.875C18.7591 16.7092 18.691 16.5503 18.5696 16.4331C18.4483 16.3158 18.2838 16.25 18.1122 16.25H12.9373C12.0795 16.25 11.2569 15.9208 10.6503 15.3347C10.0437 14.7487 9.70299 13.9538 9.70299 13.125C9.70299 12.2962 10.0437 11.5013 10.6503 10.9153C11.2569 10.3292 12.0795 10 12.9373 10H14.231V7.5H16.8185V10H20.0528V12.5H12.9373C12.7658 12.5 12.6012 12.5658 12.4799 12.6831C12.3586 12.8003 12.2905 12.9592 12.2905 13.125C12.2905 13.2908 12.3586 13.4497 12.4799 13.5669C12.6012 13.6842 12.7658 13.75 12.9373 13.75H18.1122C18.97 13.75 19.7927 14.0792 20.3993 14.6653C21.0058 15.2513 21.3466 16.0462 21.3466 16.875C21.3466 17.7038 21.0058 18.4987 20.3993 19.0847C19.7927 19.6708 18.97 20 18.1122 20H16.8185V22.5H14.231V20H10.9967V17.5Z" fill="#4F4F4F"/>
</svg>
