<svg width="26" height="26" viewBox="0 0 26 26" fill="none" xmlns="http://www.w3.org/2000/svg">
<path fill-rule="evenodd" clip-rule="evenodd" d="M16.065 20.5833C15.6126 21.8651 14.3938 22.75 13 22.75C11.6031 22.75 10.386 21.8619 9.93495 20.5833H8.20897C6.7132 20.5833 5.50064 19.3708 5.50064 17.875C5.50064 17.4961 5.58016 17.1213 5.73407 16.775L6.49999 15.0517V11.9167C6.49999 9.08653 8.30874 6.67884 10.8333 5.78653V5.41667C10.8333 4.22005 11.8034 3.25 13 3.25C14.1966 3.25 15.1667 4.22005 15.1667 5.41667V5.78653C17.6912 6.67884 19.5 9.08653 19.5 11.9167V15.0517L20.2659 16.775C20.8734 18.1419 20.2578 19.7424 18.891 20.3499C18.5447 20.5038 18.17 20.5833 17.791 20.5833H16.065V20.5833ZM14.8773 20.5833H11.1227C11.5004 21.2369 12.2069 21.6667 13 21.6667C13.7917 21.6667 14.4989 21.2383 14.8773 20.5833V20.5833ZM14.0833 5.50654V5.41667C14.0833 4.81836 13.5983 4.33333 13 4.33333C12.4017 4.33333 11.9167 4.81836 11.9167 5.41667V5.50654C12.269 5.44743 12.6309 5.41667 13 5.41667C13.3691 5.41667 13.731 5.44743 14.0833 5.50654V5.50654ZM13 6.5C10.0084 6.5 7.58332 8.92512 7.58332 11.9167V15.1667L7.53664 15.3867L6.72403 17.215C6.63169 17.4228 6.58397 17.6476 6.58397 17.875C6.58397 18.7725 7.31151 19.5 8.20897 19.5H17.791C18.0184 19.5 18.2432 19.4523 18.451 19.3599C19.2711 18.9954 19.6404 18.0351 19.2759 17.215L18.4633 15.3867L18.4167 15.1667V11.9167C18.4167 8.92512 15.9915 6.5 13 6.5Z" fill="#828282"/>
</svg>
