<svg width="36" height="36" viewBox="0 0 36 36" fill="none" xmlns="http://www.w3.org/2000/svg">
<path fill-rule="evenodd" clip-rule="evenodd" d="M22.5 26.7569L19.716 18.4064L28.068 10.0529L22.5 26.7569ZM25.947 7.93191L17.595 16.2839L9.24299 13.4999L25.947 7.93191ZM32.985 4.42189C32.9775 4.28239 32.952 4.14739 32.9055 4.01689C32.8905 3.97039 32.874 3.92539 32.853 3.88039C32.781 3.71989 32.6895 3.56839 32.5605 3.43939C32.4315 3.31039 32.28 3.21889 32.118 3.14689C32.0745 3.12589 32.031 3.10939 31.9845 3.09439C31.851 3.04789 31.7145 3.02089 31.572 3.01339C31.539 3.01189 31.509 3.00439 31.4745 3.00439C31.3245 3.00739 31.173 3.02839 31.026 3.07639L4.026 12.0764C3.4125 12.2819 3 12.8534 3 13.4999C3 14.1464 3.4125 14.7194 4.026 14.9234L16.8135 19.1864L21.078 31.9754C21.282 32.5874 21.8535 32.9999 22.5 32.9999C23.1465 32.9999 23.718 32.5874 23.922 31.9754L32.922 4.97539C32.97 4.82689 32.9925 4.67689 32.994 4.52689C32.9955 4.49089 32.9865 4.45789 32.985 4.42189V4.42189Z" fill="#9B51E0"/>
<mask id="mask0" mask-type="alpha" maskUnits="userSpaceOnUse" x="3" y="3" width="30" height="30">
<path fill-rule="evenodd" clip-rule="evenodd" d="M22.5 26.7569L19.716 18.4064L28.068 10.0529L22.5 26.7569ZM25.947 7.93191L17.595 16.2839L9.24299 13.4999L25.947 7.93191ZM32.985 4.42189C32.9775 4.28239 32.952 4.14739 32.9055 4.01689C32.8905 3.97039 32.874 3.92539 32.853 3.88039C32.781 3.71989 32.6895 3.56839 32.5605 3.43939C32.4315 3.31039 32.28 3.21889 32.118 3.14689C32.0745 3.12589 32.031 3.10939 31.9845 3.09439C31.851 3.04789 31.7145 3.02089 31.572 3.01339C31.539 3.01189 31.509 3.00439 31.4745 3.00439C31.3245 3.00739 31.173 3.02839 31.026 3.07639L4.026 12.0764C3.4125 12.2819 3 12.8534 3 13.4999C3 14.1464 3.4125 14.7194 4.026 14.9234L16.8135 19.1864L21.078 31.9754C21.282 32.5874 21.8535 32.9999 22.5 32.9999C23.1465 32.9999 23.718 32.5874 23.922 31.9754L32.922 4.97539C32.97 4.82689 32.9925 4.67689 32.994 4.52689C32.9955 4.49089 32.9865 4.45789 32.985 4.42189V4.42189Z" fill="white"/>
</mask>
<g mask="url(#mask0)">
</g>
</svg>
