<svg width="5" height="7" viewBox="0 0 5 7" fill="none" xmlns="http://www.w3.org/2000/svg">
<path d="M4.78674 3.05811C4.78696 2.93967 4.72101 2.8263 4.60414 2.7442L1.02009 0.12639C0.864226 0.013537 0.636158 -0.0277581 0.426174 0.0188522C0.216189 0.0654624 0.0581442 0.192463 0.0146058 0.349576C-0.0289326 0.50669 0.0490552 0.668585 0.217696 0.77117L3.34596 3.05811L0.174951 5.37321C0.0240648 5.48342 -0.034863 5.64405 0.0203652 5.79459C0.0755935 5.94514 0.236587 6.06273 0.442702 6.10307C0.648816 6.14341 0.868738 6.10037 1.01962 5.99016L4.60368 3.37235C4.72083 3.29023 4.78696 3.17671 4.78674 3.05811Z" fill="#FF2D55"/>
</svg>
