<svg width="36" height="36" viewBox="0 0 36 36" fill="none" xmlns="http://www.w3.org/2000/svg">
<path fill-rule="evenodd" clip-rule="evenodd" d="M18 16.4993C16.7595 16.4993 15.75 15.4898 15.75 14.2493C15.75 13.0088 16.7595 11.9993 18 11.9993C19.2405 11.9993 20.25 13.0088 20.25 14.2493C20.25 15.4898 19.2405 16.4993 18 16.4993M18 8.99926C15.105 8.99926 12.75 11.3543 12.75 14.2493C12.75 17.1443 15.105 19.4993 18 19.4993C20.895 19.4993 23.25 17.1443 23.25 14.2493C23.25 11.3543 20.895 8.99926 18 8.99926M18 29.469C15.4875 27.093 9 20.4225 9 14.883C9 9.9855 13.0365 6 18 6C22.9635 6 27 9.9855 27 14.883C27 20.4225 20.5125 27.093 18 29.469M18 3C11.3835 3 6 8.3295 6 14.883C6 23.0955 16.5735 32.2515 17.0235 32.637C17.3055 32.8785 17.652 33 18 33C18.348 33 18.6945 32.8785 18.9765 32.637C19.4265 32.2515 30 23.0955 30 14.883C30 8.3295 24.6165 3 18 3" fill="#F2994A"/>
<mask id="mask0" mask-type="alpha" maskUnits="userSpaceOnUse" x="6" y="3" width="24" height="30">
<path fill-rule="evenodd" clip-rule="evenodd" d="M18 16.4993C16.7595 16.4993 15.75 15.4898 15.75 14.2493C15.75 13.0088 16.7595 11.9993 18 11.9993C19.2405 11.9993 20.25 13.0088 20.25 14.2493C20.25 15.4898 19.2405 16.4993 18 16.4993M18 8.99926C15.105 8.99926 12.75 11.3543 12.75 14.2493C12.75 17.1443 15.105 19.4993 18 19.4993C20.895 19.4993 23.25 17.1443 23.25 14.2493C23.25 11.3543 20.895 8.99926 18 8.99926M18 29.469C15.4875 27.093 9 20.4225 9 14.883C9 9.9855 13.0365 6 18 6C22.9635 6 27 9.9855 27 14.883C27 20.4225 20.5125 27.093 18 29.469M18 3C11.3835 3 6 8.3295 6 14.883C6 23.0955 16.5735 32.2515 17.0235 32.637C17.3055 32.8785 17.652 33 18 33C18.348 33 18.6945 32.8785 18.9765 32.637C19.4265 32.2515 30 23.0955 30 14.883C30 8.3295 24.6165 3 18 3" fill="white"/>
</mask>
<g mask="url(#mask0)">
</g>
</svg>
