<svg width="26" height="25" viewBox="0 0 26 25" fill="none" xmlns="http://www.w3.org/2000/svg">
<path d="M9.70299 5.625V9.375H5.82179V5.625H9.70299ZM11.6436 3.75H3.8812V11.25H11.6436V3.75ZM9.70299 15.625V19.375H5.82179V15.625H9.70299ZM11.6436 13.75H3.8812V21.25H11.6436V13.75ZM20.0528 5.625V9.375H16.1716V5.625H20.0528ZM21.9934 3.75H14.231V11.25H21.9934V3.75ZM14.231 13.75H16.1716V15.625H14.231V13.75ZM16.1716 15.625H18.1122V17.5H16.1716V15.625ZM18.1122 13.75H20.0528V15.625H18.1122V13.75ZM14.231 17.5H16.1716V19.375H14.231V17.5ZM16.1716 19.375H18.1122V21.25H16.1716V19.375ZM18.1122 17.5H20.0528V19.375H18.1122V17.5ZM20.0528 15.625H21.9934V17.5H20.0528V15.625ZM20.0528 19.375H21.9934V21.25H20.0528V19.375ZM25.8746 6.25H23.2872V2.5H19.406V0H25.8746V6.25ZM25.8746 25V18.75H23.2872V22.5H19.406V25H25.8746ZM0 25H6.46866V22.5H2.58746V18.75H0V25ZM0 0V6.25H2.58746V2.5H6.46866V0H0Z" fill="#4F4F4F"/>
</svg>
