<svg width="36" height="36" viewBox="0 0 36 36" fill="none" xmlns="http://www.w3.org/2000/svg">
<path fill-rule="evenodd" clip-rule="evenodd" d="M8.87128 7.50001H26.8653C29.8338 7.50001 32.2503 9.87451 32.2503 12.7935V16.5C32.2503 17.3295 31.5798 18 30.7503 18C29.9208 18 29.2503 17.3295 29.2503 16.5V12.7935C29.2503 11.5305 28.1808 10.5 26.8653 10.5H8.87128L10.8108 12.4395C11.3958 13.026 11.3958 13.974 10.8108 14.5605C10.5183 14.853 10.1343 15 9.75028 15C9.36628 15 8.98228 14.853 8.68978 14.5605L4.18978 10.0605C3.60328 9.47401 3.60328 8.52601 4.18978 7.93951L8.68978 3.43951C9.27478 2.85301 10.2243 2.85301 10.8108 3.43951C11.3958 4.02601 11.3958 4.97401 10.8108 5.56051L8.87128 7.50001ZM25.1895 21.4395C25.776 20.853 26.724 20.853 27.3105 21.4395L31.8105 25.9395C32.397 26.526 32.397 27.474 31.8105 28.0605L27.3105 32.5605C27.018 32.853 26.634 33 26.25 33C25.866 33 25.482 32.853 25.1895 32.5605C24.603 31.974 24.603 31.026 25.1895 30.4395L27.129 28.5H9.13499C6.16499 28.5 3.74999 26.1255 3.74999 23.2065V19.5C3.74999 18.6705 4.42199 18 5.24999 18C6.07799 18 6.74999 18.6705 6.74999 19.5V23.2065C6.74999 24.471 7.81949 25.5 9.13499 25.5H27.129L25.1895 23.5605C24.603 22.974 24.603 22.026 25.1895 21.4395Z" fill="#EB5757"/>
<mask id="mask0" mask-type="alpha" maskUnits="userSpaceOnUse" x="3" y="2" width="30" height="31">
<path fill-rule="evenodd" clip-rule="evenodd" d="M8.87128 7.50001H26.8653C29.8338 7.50001 32.2503 9.87451 32.2503 12.7935V16.5C32.2503 17.3295 31.5798 18 30.7503 18C29.9208 18 29.2503 17.3295 29.2503 16.5V12.7935C29.2503 11.5305 28.1808 10.5 26.8653 10.5H8.87128L10.8108 12.4395C11.3958 13.026 11.3958 13.974 10.8108 14.5605C10.5183 14.853 10.1343 15 9.75028 15C9.36628 15 8.98228 14.853 8.68978 14.5605L4.18978 10.0605C3.60328 9.47401 3.60328 8.52601 4.18978 7.93951L8.68978 3.43951C9.27478 2.85301 10.2243 2.85301 10.8108 3.43951C11.3958 4.02601 11.3958 4.97401 10.8108 5.56051L8.87128 7.50001ZM25.1895 21.4395C25.776 20.853 26.724 20.853 27.3105 21.4395L31.8105 25.9395C32.397 26.526 32.397 27.474 31.8105 28.0605L27.3105 32.5605C27.018 32.853 26.634 33 26.25 33C25.866 33 25.482 32.853 25.1895 32.5605C24.603 31.974 24.603 31.026 25.1895 30.4395L27.129 28.5H9.13499C6.16499 28.5 3.74999 26.1255 3.74999 23.2065V19.5C3.74999 18.6705 4.42199 18 5.24999 18C6.07799 18 6.74999 18.6705 6.74999 19.5V23.2065C6.74999 24.471 7.81949 25.5 9.13499 25.5H27.129L25.1895 23.5605C24.603 22.974 24.603 22.026 25.1895 21.4395Z" fill="white"/>
</mask>
<g mask="url(#mask0)">
</g>
</svg>
