<svg width="26" height="26" viewBox="0 0 26 26" fill="none" xmlns="http://www.w3.org/2000/svg">
<path fill-rule="evenodd" clip-rule="evenodd" d="M13 11.375C12.1041 11.375 11.375 12.1041 11.375 13C11.375 13.8959 12.1041 14.625 13 14.625C13.8959 14.625 14.625 13.8959 14.625 13C14.625 12.1041 13.8959 11.375 13 11.375ZM13 16.7917C10.9091 16.7917 9.2083 15.0908 9.2083 13C9.2083 10.9092 10.9091 9.20832 13 9.20832C15.0908 9.20832 16.7916 10.9092 16.7916 13C16.7916 15.0908 15.0908 16.7917 13 16.7917ZM23.7163 11.1789L22.8637 8.44782C22.66 7.79241 22.2159 7.26266 21.6146 6.95499C21.0285 6.65491 20.3623 6.60399 19.7383 6.81199L19.37 6.93441C18.7893 7.13049 18.1415 7.02216 17.6442 6.64841L17.5283 6.56066C17.0549 6.20532 16.7743 5.62574 16.7765 5.01257L16.7786 4.71032C16.7808 4.02241 16.5186 3.37782 16.0387 2.89574C15.574 2.42882 14.9597 2.17099 14.3075 2.16991L11.5483 2.16666H11.544C10.1855 2.16666 9.07613 3.29549 9.07072 4.68649L9.06963 4.94757C9.06747 5.59541 8.76955 6.20641 8.27555 6.58341L8.1358 6.68957C7.58005 7.11207 6.85963 7.23232 6.21072 7.01132C5.60622 6.80441 4.95947 6.84882 4.38747 7.13699C3.80247 7.43274 3.37022 7.94624 3.1698 8.58216L2.2858 11.3934C1.86655 12.7281 2.57072 14.1277 3.88913 14.5795L4.0668 14.6402C4.62797 14.8319 5.07972 15.3216 5.27905 15.9521L5.33863 16.1341C5.57588 16.8339 5.49355 17.5717 5.08838 18.1458C4.30838 19.2541 4.54563 20.8173 5.61813 21.6298L7.8628 23.335C8.29397 23.6622 8.80422 23.8333 9.3318 23.8333C9.45638 23.8333 9.58205 23.8247 9.70772 23.8052C10.3707 23.7012 10.9525 23.3382 11.3446 22.7825L11.5949 22.4272C11.9545 21.9158 12.5038 21.6136 13.1419 21.5962C13.7778 21.5605 14.3845 21.892 14.7636 22.438L14.8915 22.6243C15.2804 23.1855 15.861 23.5538 16.5262 23.6611C17.186 23.7662 17.8435 23.6026 18.3798 23.1974L20.6125 21.5117C21.6894 20.7003 21.9364 19.1317 21.1629 18.0137L20.8801 17.6074C20.5248 17.0939 20.4208 16.4255 20.6006 15.8177C20.7967 15.1547 21.2864 14.6347 21.9115 14.4246L22.1292 14.352C23.4151 13.9219 24.1269 12.4984 23.7163 11.1789Z" fill="#18203A"/>
<mask id="mask0" mask-type="alpha" maskUnits="userSpaceOnUse" x="2" y="2" width="22" height="22">
<path fill-rule="evenodd" clip-rule="evenodd" d="M13 11.375C12.1041 11.375 11.375 12.1041 11.375 13C11.375 13.8959 12.1041 14.625 13 14.625C13.8959 14.625 14.625 13.8959 14.625 13C14.625 12.1041 13.8959 11.375 13 11.375ZM13 16.7917C10.9091 16.7917 9.2083 15.0908 9.2083 13C9.2083 10.9092 10.9091 9.20832 13 9.20832C15.0908 9.20832 16.7916 10.9092 16.7916 13C16.7916 15.0908 15.0908 16.7917 13 16.7917ZM23.7163 11.1789L22.8637 8.44782C22.66 7.79241 22.2159 7.26266 21.6146 6.95499C21.0285 6.65491 20.3623 6.60399 19.7383 6.81199L19.37 6.93441C18.7893 7.13049 18.1415 7.02216 17.6442 6.64841L17.5283 6.56066C17.0549 6.20532 16.7743 5.62574 16.7765 5.01257L16.7786 4.71032C16.7808 4.02241 16.5186 3.37782 16.0387 2.89574C15.574 2.42882 14.9597 2.17099 14.3075 2.16991L11.5483 2.16666H11.544C10.1855 2.16666 9.07613 3.29549 9.07072 4.68649L9.06963 4.94757C9.06747 5.59541 8.76955 6.20641 8.27555 6.58341L8.1358 6.68957C7.58005 7.11207 6.85963 7.23232 6.21072 7.01132C5.60622 6.80441 4.95947 6.84882 4.38747 7.13699C3.80247 7.43274 3.37022 7.94624 3.1698 8.58216L2.2858 11.3934C1.86655 12.7281 2.57072 14.1277 3.88913 14.5795L4.0668 14.6402C4.62797 14.8319 5.07972 15.3216 5.27905 15.9521L5.33863 16.1341C5.57588 16.8339 5.49355 17.5717 5.08838 18.1458C4.30838 19.2541 4.54563 20.8173 5.61813 21.6298L7.8628 23.335C8.29397 23.6622 8.80422 23.8333 9.3318 23.8333C9.45638 23.8333 9.58205 23.8247 9.70772 23.8052C10.3707 23.7012 10.9525 23.3382 11.3446 22.7825L11.5949 22.4272C11.9545 21.9158 12.5038 21.6136 13.1419 21.5962C13.7778 21.5605 14.3845 21.892 14.7636 22.438L14.8915 22.6243C15.2804 23.1855 15.861 23.5538 16.5262 23.6611C17.186 23.7662 17.8435 23.6026 18.3798 23.1974L20.6125 21.5117C21.6894 20.7003 21.9364 19.1317 21.1629 18.0137L20.8801 17.6074C20.5248 17.0939 20.4208 16.4255 20.6006 15.8177C20.7967 15.1547 21.2864 14.6347 21.9115 14.4246L22.1292 14.352C23.4151 13.9219 24.1269 12.4984 23.7163 11.1789Z" fill="white"/>
</mask>
<g mask="url(#mask0)">
</g>
</svg>
