<svg width="26" height="26" viewBox="0 0 26 26" fill="none" xmlns="http://www.w3.org/2000/svg">
<path fill-rule="evenodd" clip-rule="evenodd" d="M22.8399 7.52724C22.4423 6.88374 21.7533 6.50024 20.9972 6.50024H7.13049L6.46207 4.04866C6.33316 3.57741 5.90524 3.25024 5.41666 3.25024H3.24999C2.65091 3.25024 2.16666 3.73558 2.16666 4.33358C2.16666 4.93158 2.65091 5.41691 3.24999 5.41691H4.58899L7.62124 16.5352C7.75016 17.0064 8.17807 17.3336 8.66666 17.3336H18.4167C18.8272 17.3336 19.2021 17.1017 19.3862 16.7345L22.9352 9.63541C23.2732 8.95833 23.2375 8.17074 22.8399 7.52724ZM8.12499 19.5C7.22799 19.5 6.49999 20.2269 6.49999 21.125C6.49999 22.0231 7.22799 22.75 8.12499 22.75C9.02199 22.75 9.74999 22.0231 9.74999 21.125C9.74999 20.2269 9.02199 19.5 8.12499 19.5ZM17.3333 21.125C17.3333 20.2269 18.0613 19.5 18.9583 19.5C19.8553 19.5 20.5833 20.2269 20.5833 21.125C20.5833 22.0231 19.8553 22.75 18.9583 22.75C18.0613 22.75 17.3333 22.0231 17.3333 21.125Z" fill="#4F4F4F"/>
<mask id="mask0" mask-type="alpha" maskUnits="userSpaceOnUse" x="2" y="3" width="22" height="20">
<path fill-rule="evenodd" clip-rule="evenodd" d="M22.8399 7.52724C22.4423 6.88374 21.7533 6.50024 20.9972 6.50024H7.13049L6.46207 4.04866C6.33316 3.57741 5.90524 3.25024 5.41666 3.25024H3.24999C2.65091 3.25024 2.16666 3.73558 2.16666 4.33358C2.16666 4.93158 2.65091 5.41691 3.24999 5.41691H4.58899L7.62124 16.5352C7.75016 17.0064 8.17807 17.3336 8.66666 17.3336H18.4167C18.8272 17.3336 19.2021 17.1017 19.3862 16.7345L22.9352 9.63541C23.2732 8.95833 23.2375 8.17074 22.8399 7.52724ZM8.12499 19.5C7.22799 19.5 6.49999 20.2269 6.49999 21.125C6.49999 22.0231 7.22799 22.75 8.12499 22.75C9.02199 22.75 9.74999 22.0231 9.74999 21.125C9.74999 20.2269 9.02199 19.5 8.12499 19.5ZM17.3333 21.125C17.3333 20.2269 18.0613 19.5 18.9583 19.5C19.8553 19.5 20.5833 20.2269 20.5833 21.125C20.5833 22.0231 19.8553 22.75 18.9583 22.75C18.0613 22.75 17.3333 22.0231 17.3333 21.125Z" fill="white"/>
</mask>
<g mask="url(#mask0)">
</g>
</svg>
