<svg width="26" height="26" viewBox="0 0 26 26" fill="none" xmlns="http://www.w3.org/2000/svg">
<path fill-rule="evenodd" clip-rule="evenodd" d="M16.3343 14.0191L20.079 15.7212C21.0459 16.1607 21.6666 17.1248 21.6666 18.1868V18.9583C21.6666 20.4541 20.4541 21.6667 18.9583 21.6667H7.04165C5.54587 21.6667 4.33331 20.4541 4.33331 18.9583V18.1868C4.33331 17.1248 4.95407 16.1607 5.92093 15.7212L9.66565 14.0191C8.39808 13.0277 7.58331 11.484 7.58331 9.75001C7.58331 6.75847 10.0084 4.33334 13 4.33334C15.9915 4.33334 18.4166 6.75847 18.4166 9.75001C18.4166 11.484 17.6019 13.0277 16.3343 14.0191V14.0191ZM10.7914 14.6974L6.36922 16.7075C5.7891 16.9712 5.41665 17.5496 5.41665 18.1868V18.9583C5.41665 19.8558 6.14418 20.5833 7.04165 20.5833H18.9583C19.8558 20.5833 20.5833 19.8558 20.5833 18.9583V18.1868C20.5833 17.5496 20.2109 16.9712 19.6307 16.7075L15.2086 14.6974C14.5341 14.999 13.7866 15.1667 13 15.1667C12.2133 15.1667 11.4659 14.999 10.7914 14.6974V14.6974ZM13 14.0833C15.3932 14.0833 17.3333 12.1432 17.3333 9.75001C17.3333 7.35678 15.3932 5.41668 13 5.41668C10.6067 5.41668 8.66665 7.35678 8.66665 9.75001C8.66665 12.1432 10.6067 14.0833 13 14.0833Z" fill="#828282"/>
</svg>
